<svg xmlns="http://www.w3.org/2000/svg" viewBox="0 0 80.03 65.71"><defs><style>.cls-1{fill:#fff;}</style></defs><g id="Livello_2" data-name="Livello 2"><g id="Livello_1-2" data-name="Livello 1"><path class="cls-1" d="M4.88,51c-.63-.28-1.86-1-3-.53a3.19,3.19,0,0,0-1.16.81,3.1,3.1,0,0,0-.69,1.22.64.64,0,0,0,0,.07,3,3,0,0,0,.19,1.56A3.31,3.31,0,0,0,2.48,55.9a9.31,9.31,0,0,0,2.79.25,30.18,30.18,0,0,0,4.1-.39,85.19,85.19,0,0,0,8.29-2c6.71-2.1,10.06-3.15,12-4a65.46,65.46,0,0,0,11.23-6.2h-.18a1.28,1.28,0,0,1-.61-.12,29.27,29.27,0,0,1-3.4-2,28.92,28.92,0,0,1-2.79-2.1,1.06,1.06,0,0,1,0-1.13,1.41,1.41,0,0,1,1-.46H35l6.23.85a1.29,1.29,0,0,0,1-.26q4.21-3.33,8.75-6.68,5.73-4.25,11.27-8a1.19,1.19,0,0,1,.25-.13,4.73,4.73,0,0,1,2.17-.31,5,5,0,0,1,1.64.47,1.22,1.22,0,0,1,.65.89,2.55,2.55,0,0,1,0,.83A2.59,2.59,0,0,1,66,27l-.11.1c-1.45,1.29-2.49,2.09-2.49,2.09-1.53,1.15-2.92,2.48-4.49,3.58a.89.89,0,0,0-.29.33.77.77,0,0,0-.07.27,62.44,62.44,0,0,0-1.3,7.72,63.72,63.72,0,0,1-1.41,8.34.84.84,0,0,1-.06.17l-.14.18a4.09,4.09,0,0,1-.72.55h0a1.26,1.26,0,0,1-1.88-1l-1-9a1.26,1.26,0,0,0-1.92-.93c-.68.43-1.41.87-2.18,1.3l0,0c-11.39,7.65-14.14,9.65-15.6,10.59h0a13.52,13.52,0,0,0,3.14,8.09,16.6,16.6,0,0,0,4.81,4.22,16.08,16.08,0,0,0,8.48,2,18,18,0,0,0,4.86-1,18.62,18.62,0,0,0,2.32-1,35.17,35.17,0,0,0,8-5.32c2.13-1.9,8.28-7.86,12.71-24.94a109,109,0,0,0,3.26-33,.49.49,0,0,0-.72-.4A36.54,36.54,0,0,1,75.5,1.81a43.2,43.2,0,0,1-4.28,1.48s-3,.9-6,1.43C57.64,6,48.79,4.48,37.52,6.66a23.49,23.49,0,0,0-7.33,2.42,22.91,22.91,0,0,0-7.85,7.25,20.92,20.92,0,0,0-3.21,6.49,19.88,19.88,0,0,0,3.53,17.81,20.84,20.84,0,0,0,6.72,5.59.49.49,0,0,1-.05.89c-1.24.49-1.9,1.92-12.23,3.68-3,.47-3.18.35-6.26.69A11.85,11.85,0,0,1,4.88,51ZM48.75,31.64l-2.88,2a.88.88,0,0,1-.82.08L40.91,32a.88.88,0,0,1-.21-1.5l1.43-1.12a.85.85,0,0,1,.67-.17l5.58.82A.88.88,0,0,1,48.75,31.64Z"/></g></g></svg>