<svg xmlns="http://www.w3.org/2000/svg" viewBox="0 0 84.87 92.71"><defs><style>.cls-1{fill:#27a105;}.cls-2{fill:#066b30;}</style></defs><g id="Livello_2" data-name="Livello 2"><g id="Livello_1-2" data-name="Livello 1"><path class="cls-1" d="M33.83,92.25c-.29-.29-.19-.48-.84-2.39-.34-1-.76-2.13-3.59-8-1.08-2.22-1.75-4.65-3.09-6.72-.36-.56-.25-4.17-2.77-3.51a12.29,12.29,0,0,1-6.83-.42c-2-.57-2.05-1-5.2-2.45-5.39-2.55-7-2.3-9.28-4.55C1.46,63.47-.4,61.59.08,59.94c.13-.45.55-1.31,5.26-2.87,5-1.66,6.45-1.32,9-3,.59-.4.75-.58,2.57-1.86a33.36,33.36,0,0,1,4-2.61,14.42,14.42,0,0,1,5.13-1.1,9.31,9.31,0,0,1,1,0c.52,0,.52,0,.89,0,.68,0,1-.19,1,0-.16.65-.11.76.06.91s1.09-.57,2-1.08A7.63,7.63,0,0,1,34,47.49c2.34-.27,3.3.78,5.62,1a15,15,0,0,0,5.27-.54c-.93,2.94-2.55,6.08-5.57,7.72-3.6,2-8.3,1-8.31,1.38,0,.21,1.51.48,2.57.6,2.28.24,2.86-.16,3.89.18,1.44.46,1.91,1.77,3,3.59.37.58,1.8,2.22,4.67,5.5,3.72,4.26,5.59,6.39,8.5,8.32a26.06,26.06,0,0,0,6.76,3.17C41.31,92,35.33,93.78,33.83,92.25Z"/><path class="cls-2" d="M24.75,48.56A53.93,53.93,0,0,0,28.17,41a54.29,54.29,0,0,0,2.62-10.16A19.76,19.76,0,0,1,31,33a21.68,21.68,0,0,1-.82,7.09l12.55-8.37A34.18,34.18,0,0,0,47.83,18a34,34,0,0,0-.78-13.34,25.86,25.86,0,0,1,2.58,16,25.18,25.18,0,0,1-4,9.81l9.13-9.16c.91-6.87,1.61-7.54,3.37-11.16a20.73,20.73,0,0,0,1.74-4.72C60.21,4,59.1.85,58.86,0c-.13.23,4.35,3.65,2,9.25-1.51,3.65-3.56,7.58-3.56,9.87,0,0,16.84-11.16,19.71-16.83.48.4-1.29,3.39-1.61,4.49-1.08,3.68-5.43,6.45-5.79,6.82,1.29.84,7.82,2.88,10,2.74a14.39,14.39,0,0,0,5.25-1.41,5.31,5.31,0,0,1-2.15,3.35c-3.64,2.19-14-1.27-15-2L60.32,22c3.39,1.2,6.58,2.44,10.31,3.6,11,3.44,14.24,2.14,14.24,2.14-1,.54-4.6,3-15,1.15-2-.36-11.41-3.68-12.68-4.25l-7.3,6.89a85.11,85.11,0,0,0,11.31,4.84,72.43,72.43,0,0,0,17.41,3.71,49.8,49.8,0,0,1-9.81.42,52.81,52.81,0,0,1-22.21-6.68l-3.79,2a22.81,22.81,0,0,1,6.49,6.83c2.66,4.78,2.15,5.46,2.36,7.09-.71-.46-5.48-10.23-10.45-12.8a33.3,33.3,0,0,0-8.37,5.74,20.54,20.54,0,0,0-3.89,5.74Z"/><path class="cls-2" d="M.34,61.81a31.71,31.71,0,0,0,4.8,2.35c1.78.69,2.46.77,4.45,1.62,1.8.76,2.1,1.06,3.71,1.8a20.06,20.06,0,0,0,5.75,2c4,.56,6.3-1.25,7.65.26a8.06,8.06,0,0,1,1.11,2.08c.43,1.08.28,1.23.66,2.42.52,1.64.91,1.72,1.73,4,.19.53.25.75.48,1.32.48,1.13,1,1.87,3,6.59,1.14,2.62,2,4.82,2.65,6.35a4.84,4.84,0,0,1-1,.14,2.55,2.55,0,0,1-1-.11,1.75,1.75,0,0,1-.56-.35,1,1,0,0,1-.18-.27,1.5,1.5,0,0,1-.12-.36q-.09-.39-.21-.78a21.77,21.77,0,0,0-.86-2.38C30.3,84,29.42,82,29,81.13l-.78-1.88-.69-1.67c-.81-1.78-1-1.58-1.33-2.55a13.07,13.07,0,0,0-.64-2.39,1.83,1.83,0,0,0-.81-.9,1.79,1.79,0,0,0-.72-.15,3.45,3.45,0,0,0-.7.12l-.85.17c-.32.05-.56.07-.72.08a10.49,10.49,0,0,1-2.24-.06c-.45-.06-.77-.13-1.18-.21A14.52,14.52,0,0,1,15.84,71a12.65,12.65,0,0,1-1.31-.61c-.2-.1-2.58-1.34-3.85-1.94s-2.59-1.09-5.31-2.13a8.74,8.74,0,0,1-1.76-.89,10.49,10.49,0,0,1-1.38-1.14,13.52,13.52,0,0,1-1-1,8.71,8.71,0,0,1-.55-.73A6.5,6.5,0,0,1,.34,61.81Z"/><path class="cls-2" d="M31.22,55.66a15.59,15.59,0,0,0,3.23-.44c5.39-1.32,9-5.41,10.39-7.31a16,16,0,0,1-3.19,5.86,10.44,10.44,0,0,1-1.79,1.51,9.52,9.52,0,0,1-2.43,1.1,15.39,15.39,0,0,1-4.72.54,9.55,9.55,0,0,0-1.05,0L31,57S31.12,56.31,31.22,55.66Z"/></g></g></svg>